<svg width="10" height="10" viewBox="0 0 10 10" fill="none" xmlns="http://www.w3.org/2000/svg">
<path d="M4.58314 2.35095C4.31262 2.35095 4.04816 2.43117 3.82323 2.58147C3.59829 2.73177 3.42298 2.94539 3.31945 3.19532C3.21592 3.44526 3.18884 3.72028 3.24161 3.98561C3.29439 4.25094 3.42466 4.49466 3.61595 4.68595C3.80725 4.87724 4.05097 5.00751 4.3163 5.06029C4.58163 5.11307 4.85665 5.08598 5.10658 4.98246C5.35652 4.87893 5.57014 4.70361 5.72044 4.47868C5.87073 4.25374 5.95095 3.98929 5.95095 3.71876C5.95054 3.35612 5.8063 3.00846 5.54988 2.75203C5.29345 2.49561 4.94578 2.35137 4.58314 2.35095ZM4.58314 4.40267C4.44788 4.40267 4.31565 4.36256 4.20319 4.28741C4.09072 4.21226 4.00306 4.10545 3.9513 3.98048C3.89953 3.85552 3.88599 3.718 3.91238 3.58534C3.93877 3.45267 4.0039 3.33081 4.09955 3.23517C4.1952 3.13952 4.31706 3.07439 4.44972 3.048C4.58238 3.02161 4.7199 3.03515 4.84486 3.08692C4.96983 3.13868 5.07664 3.22634 5.15179 3.33881C5.22694 3.45127 5.26705 3.5835 5.26705 3.71876C5.26684 3.90008 5.19472 4.07391 5.06651 4.20213C4.93829 4.33034 4.76446 4.40246 4.58314 4.40267Z" fill="black"/>
<path d="M7.21157 1.08837C6.5617 0.438673 5.69421 0.0527244 4.77651 0.00501635C3.85882 -0.0426917 2.95598 0.251223 2.24225 0.830035C1.52852 1.40885 1.05449 2.23152 0.911646 3.13929C0.768806 4.04705 0.967282 4.97555 1.46877 5.74558L4.0528 9.71251C4.1103 9.80078 4.18893 9.8733 4.28155 9.9235C4.37417 9.97371 4.47785 10 4.5832 10C4.68855 10 4.79223 9.97371 4.88485 9.9235C4.97747 9.8733 5.0561 9.80078 5.1136 9.71251L7.69772 5.74558C8.16304 5.03126 8.36868 4.1787 8.28017 3.3308C8.19166 2.4829 7.81438 1.69119 7.21157 1.08837ZM7.12469 5.37227L4.58321 9.27374L2.04171 5.37227C1.26377 4.17802 1.43062 2.57982 2.43844 1.57196C2.72009 1.2903 3.05446 1.06687 3.42247 0.91444C3.79047 0.762006 4.18489 0.683549 4.58321 0.683549C4.98153 0.683549 5.37595 0.762006 5.74396 0.91444C6.11196 1.06687 6.44633 1.2903 6.72798 1.57196C7.7358 2.57982 7.90263 4.17802 7.12469 5.37227Z" fill="black"/>
</svg>
