<svg width="23" height="23" viewBox="0 0 23 23" fill="none" xmlns="http://www.w3.org/2000/svg">
<g clip-path="url(#clip0_203_1699)">
<path d="M22.2459 18.4127L18.3551 14.5219L15.3624 13.2854C16.3588 11.8683 16.8927 10.1778 16.8908 8.44539C16.8908 3.78857 13.1022 0 8.44539 0C3.78857 0 0 3.78857 0 8.44539C0 13.1022 3.78857 16.8908 8.44539 16.8908C10.1928 16.8928 11.8974 16.3497 13.3216 15.3372L14.5548 18.3218L18.4455 22.2129C18.695 22.4624 18.9913 22.6604 19.3173 22.7954C19.6433 22.9305 19.9927 23 20.3456 23C20.6985 23 21.048 22.9305 21.374 22.7955C21.7 22.6604 21.9963 22.4625 22.2458 22.213C22.4953 21.9635 22.6933 21.6672 22.8284 21.3412C22.9634 21.0152 23.0329 20.6658 23.0329 20.3129C23.033 19.96 22.9635 19.6105 22.8284 19.2845C22.6934 18.9585 22.4955 18.6622 22.2459 18.4127ZM1.53553 8.44539C1.53553 4.63537 4.63537 1.53553 8.44539 1.53553C12.2554 1.53553 15.3553 4.63537 15.3553 8.44539C15.3553 12.2554 12.2554 15.3553 8.44539 15.3553C4.63537 15.3553 1.53553 12.2554 1.53553 8.44539ZM21.1601 21.1271C20.9439 21.3428 20.6511 21.4639 20.3457 21.4639C20.0404 21.4639 19.7475 21.3428 19.5314 21.1271L15.857 17.4528L14.7105 14.6776L17.4858 15.8241L21.1602 19.4984C21.3758 19.7146 21.4969 20.0075 21.4969 20.3128C21.4969 20.6181 21.3757 20.911 21.1601 21.1271Z" fill="white"/>
</g>
<defs>
<clipPath id="clip0_203_1699">
<rect width="23" height="23" fill="white"/>
</clipPath>
</defs>
</svg>
