<svg width="17" height="18" viewBox="0 0 17 18" fill="none" xmlns="http://www.w3.org/2000/svg">
    <g clip-path="url(#clip0_274_661)">
    <path d="M5.11683 2.84407V3.98114H15.919V6.23201L14.6576 10.235H4.75908L3.33773 0H0V1.13707H2.34763L3.76897 11.3721H15.4915L17.0561 6.40691V2.84407H5.11683Z" fill="#0D4A4A"/>
    <path d="M5.72043 12.52C5.1175 12.5207 4.53947 12.7605 4.11313 13.1869C3.68679 13.6132 3.44698 14.1912 3.44629 14.7942C3.44629 15.3973 3.68589 15.9757 4.11237 16.4022C4.53886 16.8287 5.11729 17.0683 5.72043 17.0683C6.32358 17.0683 6.90201 16.8287 7.3285 16.4022C7.75498 15.9757 7.99458 15.3973 7.99458 14.7942C7.9939 14.1912 7.75409 13.6132 7.32775 13.1868C6.90141 12.7605 6.32337 12.5207 5.72043 12.52ZM5.72043 15.9312C5.49554 15.9312 5.2757 15.8645 5.08871 15.7396C4.90172 15.6147 4.75598 15.4371 4.66992 15.2293C4.58385 15.0215 4.56134 14.7929 4.60521 14.5723C4.64908 14.3518 4.75738 14.1492 4.9164 13.9901C5.07543 13.8311 5.27803 13.7228 5.4986 13.6789C5.71917 13.6351 5.9478 13.6576 6.15557 13.7436C6.36335 13.8297 6.54093 13.9755 6.66588 14.1624C6.79082 14.3494 6.85751 14.5693 6.85751 14.7942C6.85715 15.0956 6.73724 15.3846 6.52407 15.5978C6.31091 15.811 6.02189 15.9309 5.72043 15.9312Z" fill="#0D4A4A"/>
    <path d="M13.6799 12.52C13.077 12.5207 12.4989 12.7605 12.0726 13.1869C11.6463 13.6132 11.4064 14.1912 11.4058 14.7942C11.4058 15.3973 11.6454 15.9757 12.0718 16.4022C12.4983 16.8287 13.0768 17.0683 13.6799 17.0683C14.283 17.0683 14.8615 16.8287 15.288 16.4022C15.7145 15.9757 15.9541 15.3973 15.9541 14.7942C15.9534 14.1912 15.7136 13.6132 15.2872 13.1868C14.8609 12.7605 14.2828 12.5207 13.6799 12.52ZM13.6799 15.9312C13.455 15.9312 13.2352 15.8645 13.0482 15.7396C12.8612 15.6147 12.7155 15.4371 12.6294 15.2293C12.5433 15.0215 12.5208 14.7929 12.5647 14.5723C12.6086 14.3518 12.7169 14.1492 12.8759 13.9901C13.0349 13.8311 13.2375 13.7228 13.4581 13.6789C13.6786 13.6351 13.9073 13.6576 14.115 13.7436C14.3228 13.8297 14.5004 13.9755 14.6253 14.1624C14.7503 14.3494 14.817 14.5693 14.817 14.7942C14.8166 15.0956 14.6967 15.3846 14.4835 15.5978C14.2704 15.811 13.9814 15.9309 13.6799 15.9312Z" fill="#0D4A4A"/>
    </g>
    <defs>
    <clipPath id="clip0_274_661">
    <rect width="17" height="18" fill="white"/>
    </clipPath>
    </defs>
</svg>
