<svg width="14" height="17" viewBox="0 0 14 17" fill="none" xmlns="http://www.w3.org/2000/svg">
<g clip-path="url(#clip0_274_645)">
<path d="M12.7344 11.5374L9.93778 9.87068L10.9921 8.09832C11.2379 7.68443 11.3669 7.22073 11.3672 6.74946V3.94374C11.3672 2.89779 10.9141 1.89469 10.1075 1.15509C9.30086 0.4155 8.20686 0 7.06613 0C5.9254 0 4.8314 0.4155 4.02478 1.15509C3.21816 1.89469 2.76501 2.89779 2.76501 3.94374V6.74946C2.76539 7.22074 2.89435 7.68445 3.14013 8.09836L4.19448 9.87068L1.39787 11.5374C0.968066 11.7925 0.614903 12.1424 0.370697 12.555C0.126491 12.9676 -0.000960607 13.4298 5.45122e-06 13.8993V16.9017H14.1323V13.8993C14.1332 13.4298 14.0058 12.9676 13.7616 12.555C13.5173 12.1424 13.1642 11.7925 12.7344 11.5374ZM12.9034 15.7749H1.2289V13.8993C1.22832 13.6176 1.3048 13.3403 1.45133 13.0927C1.59786 12.8451 1.80976 12.6352 2.06765 12.4821L5.81807 10.2469L4.21898 7.55881C4.07151 7.31046 3.99414 7.03223 3.9939 6.74946V3.94374C3.9939 3.19663 4.31758 2.48013 4.89374 1.95185C5.46989 1.42357 6.25132 1.12678 7.06613 1.12678C7.88093 1.12678 8.66237 1.42357 9.23852 1.95185C9.81468 2.48013 10.1384 3.19663 10.1384 3.94374V6.74946C10.1381 7.03223 10.0607 7.31046 9.91328 7.55881L8.31422 10.2469L12.0647 12.4821C12.3226 12.6352 12.5345 12.8452 12.681 13.0927C12.8275 13.3403 12.9039 13.6176 12.9034 13.8993V15.7749Z" fill="white"/>
</g>
<defs>
<clipPath id="clip0_274_645">
<rect width="14" height="17" fill="white"/>
</clipPath>
</defs>
</svg>
