<svg width="11" height="10" viewBox="0 0 11 10" fill="none" xmlns="http://www.w3.org/2000/svg">
<path d="M0.285922 1.03913L0.302441 1.02881L2.39071 0L4.64465 3.00525L3.60767 4.38799C3.6387 4.90945 3.85984 5.40144 4.22922 5.77082C4.59861 6.1402 5.0906 6.36133 5.61206 6.39235L6.99477 5.35537L10 7.60927L8.97975 9.68008L8.97117 9.69756L8.96082 9.71406C8.90638 9.80178 8.83038 9.87411 8.74008 9.92417C8.64977 9.97422 8.54816 10.0003 8.44491 10H7.90606C6.86782 10 5.83975 9.7955 4.88054 9.39818C3.92133 9.00086 3.04977 8.4185 2.31563 7.68436C1.58148 6.95021 0.999125 6.07865 0.60181 5.11944C0.204494 4.16023 0 3.13215 2.86102e-06 2.09391V1.55504C-0.00032711 1.4518 0.025774 1.35018 0.0758219 1.25988C0.125869 1.16957 0.198197 1.09358 0.285922 1.03913ZM0.771712 2.09391C0.771712 6.02782 3.97218 9.22829 7.90606 9.22829H8.34208L9.0247 7.84252L6.99463 6.31996L5.86439 7.16761H5.73578C4.96597 7.16675 4.22794 6.86056 3.68361 6.31623C3.13927 5.77189 2.83309 5.03386 2.83222 4.26405V4.13544L3.67987 3.00523L2.15748 0.975271L0.771712 1.65802V2.09391Z" fill="black"/>
</svg>
